<svg id="visual" viewBox="0 0 960 300" width="960" height="300" xmlns="http://www.w3.org/2000/svg" xmlns:xlink="http://www.w3.org/1999/xlink" version="1.1"><rect x="0" y="0" width="960" height="300" fill="#c4c8c9"></rect><path d="M0 131L22.8 135.7C45.7 140.3 91.3 149.7 137 154.2C182.7 158.7 228.3 158.3 274 156C319.7 153.7 365.3 149.3 411.2 143.5C457 137.7 503 130.3 548.8 132.8C594.7 135.3 640.3 147.7 686 152C731.7 156.3 777.3 152.7 823 150.2C868.7 147.7 914.3 146.3 937.2 145.7L960 145L960 0L937.2 0C914.3 0 868.7 0 823 0C777.3 0 731.7 0 686 0C640.3 0 594.7 0 548.8 0C503 0 457 0 411.2 0C365.3 0 319.7 0 274 0C228.3 0 182.7 0 137 0C91.3 0 45.7 0 22.8 0L0 0Z" fill="#20595f"></path><path d="M0 128L22.8 124.7C45.7 121.3 91.3 114.7 137 112.7C182.7 110.7 228.3 113.3 274 118.2C319.7 123 365.3 130 411.2 131C457 132 503 127 548.8 126C594.7 125 640.3 128 686 125C731.7 122 777.3 113 823 106.2C868.7 99.3 914.3 94.7 937.2 92.3L960 90L960 0L937.2 0C914.3 0 868.7 0 823 0C777.3 0 731.7 0 686 0C640.3 0 594.7 0 548.8 0C503 0 457 0 411.2 0C365.3 0 319.7 0 274 0C228.3 0 182.7 0 137 0C91.3 0 45.7 0 22.8 0L0 0Z" fill="#22737d"></path><path d="M0 87L22.8 89.8C45.7 92.7 91.3 98.3 137 101.3C182.7 104.3 228.3 104.7 274 101C319.7 97.3 365.3 89.7 411.2 87.5C457 85.3 503 88.7 548.8 88.3C594.7 88 640.3 84 686 86.3C731.7 88.7 777.3 97.3 823 98.8C868.7 100.3 914.3 94.7 937.2 91.8L960 89L960 0L937.2 0C914.3 0 868.7 0 823 0C777.3 0 731.7 0 686 0C640.3 0 594.7 0 548.8 0C503 0 457 0 411.2 0C365.3 0 319.7 0 274 0C228.3 0 182.7 0 137 0C91.3 0 45.7 0 22.8 0L0 0Z" fill="#208e9c"></path><path d="M0 64L22.8 63.8C45.7 63.7 91.3 63.3 137 59.8C182.7 56.3 228.3 49.7 274 47.8C319.7 46 365.3 49 411.2 53.5C457 58 503 64 548.8 65.5C594.7 67 640.3 64 686 61.7C731.7 59.3 777.3 57.7 823 58.5C868.7 59.3 914.3 62.7 937.2 64.3L960 66L960 0L937.2 0C914.3 0 868.7 0 823 0C777.3 0 731.7 0 686 0C640.3 0 594.7 0 548.8 0C503 0 457 0 411.2 0C365.3 0 319.7 0 274 0C228.3 0 182.7 0 137 0C91.3 0 45.7 0 22.8 0L0 0Z" fill="#1aaabd"></path><path d="M0 27L22.8 28C45.7 29 91.3 31 137 30.8C182.7 30.7 228.3 28.3 274 28.5C319.7 28.7 365.3 31.3 411.2 30.3C457 29.3 503 24.7 548.8 26.2C594.7 27.7 640.3 35.3 686 38.8C731.7 42.3 777.3 41.7 823 39.2C868.7 36.7 914.3 32.3 937.2 30.2L960 28L960 0L937.2 0C914.3 0 868.7 0 823 0C777.3 0 731.7 0 686 0C640.3 0 594.7 0 548.8 0C503 0 457 0 411.2 0C365.3 0 319.7 0 274 0C228.3 0 182.7 0 137 0C91.3 0 45.7 0 22.8 0L0 0Z" fill="#08c7e0"></path></svg>